<svg xmlns="http://www.w3.org/2000/svg" viewBox="0 0 51.35 51.35"><defs><style>.cls-1{opacity:.15}.cls-10,.cls-2,.cls-8,.cls-9{fill:#fff}.cls-3{opacity:.2}.cls-4{opacity:.25}.cls-5{opacity:.3}.cls-6{opacity:.4}.cls-7{opacity:.5}.cls-8{opacity:.6}.cls-9{opacity:.7}.cls-10{opacity:.8}.cls-11{opacity:.85}.cls-12{opacity:.9}</style></defs><title>LoadingSpinner</title><g id="Layer_2" data-name="Layer 2"><g id="Layer_1-2" data-name="Layer 1"><g class="cls-1"><circle class="cls-2" cx="36.76" cy="6.47" r="3.5" transform="rotate(-60 36.762 6.467)"/></g><g class="cls-3"><circle class="cls-2" cx="44.88" cy="14.59" r="3.5" transform="matrix(.87 -.5 .5 .87 -1.28 24.39)"/></g><g class="cls-4"><circle class="cls-2" cx="47.85" cy="25.67" r="3.5"/></g><g class="cls-5"><circle class="cls-2" cx="44.88" cy="36.76" r="3.5" transform="rotate(-60 44.88 36.766)"/></g><g class="cls-6"><circle class="cls-2" cx="36.76" cy="44.88" r="3.5" transform="rotate(-30 36.757 44.87)"/></g><g class="cls-7"><circle class="cls-2" cx="25.67" cy="47.85" r="3.5"/></g><circle class="cls-8" cx="14.59" cy="44.88" r="3.5" transform="rotate(-60 14.587 44.875)"/><circle class="cls-9" cx="6.47" cy="36.76" r="3.5" transform="matrix(.87 -.5 .5 .87 -17.51 8.16)"/><circle class="cls-10" cx="3.5" cy="25.67" r="3.5"/><g class="cls-11"><circle class="cls-2" cx="6.47" cy="14.59" r="3.5" transform="rotate(-60 6.472 14.59)"/></g><g class="cls-12"><circle class="cls-2" cx="14.59" cy="6.47" r="3.5" transform="rotate(-30 14.587 6.469)"/></g><circle class="cls-2" cx="25.67" cy="3.5" r="3.5"/></g></g></svg>